<svg width="668" height="668" viewBox="0 0 668 668" fill="none" xmlns="http://www.w3.org/2000/svg">
<path d="M425.333 299H317C275.578 299 242 265.422 242 224C242 182.578 275.578 149 317 149H425.333" stroke="#302B28" stroke-width="66.6667" stroke-linecap="round" stroke-linejoin="round"/>
<path d="M425 508H293.227C242.843 508 202 461.214 202 403.5C202 345.786 242.843 299 293.227 299H425" stroke="#302B28" stroke-width="66.6667" stroke-linecap="round" stroke-linejoin="round"/>
<path d="M584 34H84C56.3858 34 34 56.3858 34 84V584C34 611.614 56.3858 634 84 634H584C611.614 634 634 611.614 634 584V84C634 56.3858 611.614 34 584 34Z" stroke="#302B28" stroke-width="66.6667" stroke-linecap="round" stroke-linejoin="round"/>
</svg>
