<svg width="87" height="87" viewBox="0 0 87 87" fill="none" xmlns="http://www.w3.org/2000/svg">
<path d="M41.4881 0.0259569C39.7017 0.103527 37.7436 0.308029 36.1287 0.5854C35.8725 0.630061 35.708 0.646516 35.6962 0.634763C35.6821 0.620659 35.6586 0.62536 35.6375 0.644165C35.6163 0.66297 35.4212 0.709982 35.2003 0.752293C27.7535 2.1509 20.6054 5.63919 14.8323 10.6977C13.4548 11.9035 11.9034 13.4549 10.6976 14.8324C4.61188 21.7784 0.89793 30.5227 0.143387 39.6782C0.0305578 41.0416 0 41.8055 0 43.3334C0 45.1669 0.0658168 46.4151 0.249164 48.1052C1.19881 56.8447 4.86809 65.1799 10.6976 71.8345C11.9034 73.2119 13.4548 74.7633 14.8323 75.9692C21.4351 81.754 29.6387 85.3904 38.3548 86.3941C38.6274 86.427 38.8742 86.467 38.9001 86.4834C38.933 86.5022 38.9565 86.5046 38.973 86.4881C38.9871 86.474 39.1446 86.4787 39.4478 86.5046C40.9639 86.6386 41.9629 86.6762 43.7611 86.6597C45.2444 86.648 45.5358 86.6362 46.6829 86.5492C55.3214 85.8958 63.5626 82.6402 70.3652 77.1962C71.7356 76.1008 72.6242 75.3016 73.9617 73.9618C75.3015 72.6243 76.1007 71.7357 77.1961 70.3653C82.5743 63.645 85.8228 55.5048 86.5233 46.9886C86.6361 45.6253 86.6667 44.8613 86.6667 43.3334C86.6667 42.144 86.6502 41.5 86.5961 40.642C86.2483 35.057 84.8732 29.7517 82.4614 24.6814C82.1559 24.0397 81.5682 22.895 81.5424 22.895C81.5353 22.895 81.493 22.9819 81.4483 23.0877C81.2321 23.6166 80.7902 24.4252 80.3765 25.0458L80.1555 25.3748L80.4423 25.3866L80.7314 25.3983L80.9712 25.9155C82.9222 30.116 84.1492 34.6057 84.6075 39.2316C84.7016 40.1742 84.7345 40.6937 84.7979 42.1393L84.8073 42.4049H76.7847H68.7621L68.5177 42.5107C66.844 43.2441 64.5663 43.7706 62.4907 43.907C62.2721 43.9211 61.6633 43.9187 60.6808 43.8952C52.5712 43.7166 43.6178 43.5732 36.6694 43.5097C33.5196 43.4815 27.8805 43.4815 26.1504 43.5097C24.1383 43.5426 23.0876 43.4886 21.7736 43.2864C20.7064 43.1195 19.5452 42.8304 18.6614 42.5107L18.3723 42.4049H10.1146H1.85933L1.86873 42.1393C1.93219 40.6937 1.9651 40.1742 2.05913 39.2316C2.51749 34.6057 3.74451 30.1137 5.69551 25.9155L5.93527 25.3983L11.0948 25.3936L16.2544 25.3889L17.5801 25.3161L18.9059 25.2432L19.0516 25.3137L19.1974 25.3866H21.0731C22.594 25.3866 22.9442 25.3913 22.9348 25.4172C22.8549 25.6287 22.3378 27.5656 22.1309 28.4353L21.9969 28.9948L22.3072 29.4884C22.4788 29.7587 22.7938 30.2664 23.0077 30.6167C23.4355 31.3172 23.4073 31.2748 23.4237 31.2607C23.4284 31.2537 23.4825 31.0116 23.5413 30.7201C23.8751 29.1076 24.2606 27.5797 24.8647 25.5088L24.8999 25.3866H33.6512H42.4048V31.9565V38.5265H43.3333H44.2618V31.9565V25.3866H51.4876H58.711L58.8779 25.0975C59.1247 24.6697 59.4232 24.2136 59.6841 23.8658C59.811 23.6965 59.9168 23.5508 59.9168 23.5437C59.9168 23.5367 56.3956 23.5296 52.0893 23.5296H44.2618V12.691V1.85472L44.4569 1.86648C44.5627 1.87353 44.8307 1.88528 45.0493 1.89233C46.3045 1.93465 48.4647 2.1368 49.4496 2.30604L49.5953 2.3319L50.1336 3.08644C54.6021 9.34844 57.9752 15.6339 60.2718 21.9782C60.401 22.3332 60.5233 22.6693 60.5421 22.7257L60.5797 22.8244L60.6761 22.7422C60.9605 22.5001 61.1227 22.3708 61.3037 22.2485C61.5105 22.1075 61.9501 21.8795 62.1076 21.8325C62.1569 21.8184 62.1969 21.7972 62.1969 21.7855C62.1969 21.7573 61.8537 20.8217 61.621 20.2129C59.4232 14.4892 56.4191 8.87597 52.5641 3.27919C52.3949 3.03473 52.2586 2.83257 52.2609 2.82787C52.2656 2.82552 52.3103 2.83257 52.3596 2.84433C52.4114 2.85843 52.6817 2.9219 52.959 2.98536C58.3913 4.26174 63.713 6.77453 68.2779 10.2205C72.2457 13.2152 75.6847 16.9409 78.3573 21.1414L78.5195 21.3953L79.5796 21.3788C80.1602 21.3694 80.6444 21.3553 80.6538 21.3459C80.6656 21.3365 80.548 21.125 80.3953 20.8734C79.2411 18.9671 77.866 17.0608 76.3945 15.326C75.5718 14.3552 75.0335 13.7746 73.9617 12.7051C72.6242 11.3653 71.7356 10.5661 70.3652 9.47067C63.6449 4.0925 55.5047 0.843966 46.9885 0.143487C45.5899 0.0283075 44.8495 0.000100319 43.2393 0.00480152C42.5036 0.00480152 41.7138 0.0165545 41.4881 0.0259569ZM42.4048 12.6933V23.5296H33.9544C29.3073 23.5296 25.504 23.5202 25.504 23.5108C25.504 23.4615 26.0729 21.8677 26.369 21.085C28.6797 14.9805 32.1797 8.59155 36.392 2.78556L36.6811 2.38831L37.1042 2.32249C38.6486 2.08743 40.3739 1.92994 42.064 1.87353C42.1674 1.86883 42.2873 1.86413 42.3296 1.86178L42.4048 1.85708V12.6933ZM33.9521 2.97831C33.9286 3.01592 33.7476 3.28154 33.5478 3.57301C29.1921 9.92669 25.7931 16.633 23.6682 23.076L23.5178 23.5296H15.2154C10.6482 23.5296 6.91077 23.5249 6.91077 23.5179C6.91077 23.492 7.46081 22.5283 7.74053 22.0605C12.4558 14.2071 19.6557 8.09557 28.1461 4.73891C29.6246 4.15361 31.1807 3.64118 32.7251 3.23453C33.3339 3.07234 33.9239 2.92425 33.9756 2.9172C33.985 2.91485 33.9756 2.94305 33.9521 2.97831ZM20.4831 44.7602C20.6218 49.076 21.3787 53.9182 22.601 58.3068C22.7468 58.8309 23.1064 60.0415 23.1417 60.1355C23.1581 60.1731 22.7303 60.1755 14.2917 60.1708L5.42519 60.1637L5.22774 59.7054C3.55881 55.8504 2.47753 51.6734 2.05913 47.4352C1.9651 46.4926 1.93219 45.9732 1.86873 44.5252L1.85933 44.2619H11.163H20.4667L20.4831 44.7602ZM42.4048 48.0135V51.7627L42.7175 51.7439C43.0842 51.7227 43.9092 51.7227 44.1161 51.7462L44.2618 51.7627V48.0111V44.2619H54.1202H63.981L63.9693 44.4664C63.9646 44.5816 63.9481 44.9154 63.9364 45.2139C63.7224 50.0397 62.8316 54.9901 61.299 59.8511L61.1979 60.1755L56.9809 60.1802L52.7616 60.1872L52.7733 60.3518C52.7851 60.5657 52.7851 61.694 52.7733 61.8914L52.7616 62.0442L56.6542 62.056L60.5468 62.0677L60.3188 62.6789C58.6075 67.2414 56.3392 71.6817 53.5773 75.8634C51.4406 79.0978 49.1111 82.0502 46.777 84.4807L46.5772 84.6899L46.2128 84.7134C45.8908 84.7346 45.369 84.7604 44.5274 84.798L44.2618 84.8074V77.6381V70.4688L44.1419 70.4852C43.9703 70.5087 43.056 70.5087 42.7057 70.4876L42.4048 70.4688V77.6381V84.8074L42.1416 84.798C40.9381 84.7463 39.8615 84.6829 39.7346 84.657C39.6899 84.6476 39.0364 83.9706 38.5122 83.3877C35.5881 80.1415 32.7392 76.1643 30.4074 72.0742C28.8818 69.3945 27.5726 66.6843 26.4678 63.9106C26.2515 63.3653 25.9036 62.4532 25.8072 62.1806L25.7649 62.056L29.9067 62.0513L34.0485 62.0442L34.0367 61.8562C34.0226 61.6141 34.0226 60.6174 34.0367 60.3753L34.0485 60.1872L29.58 60.1802L25.1138 60.1755L24.9211 59.5573C23.4519 54.8185 22.601 50.0397 22.3801 45.2844C22.366 45 22.3495 44.6545 22.3425 44.5134L22.3307 44.2619H32.3678H42.4048V48.0135ZM84.7979 44.5252C84.7533 45.5359 84.7321 45.9473 84.6898 46.495C84.3466 51.0387 83.2348 55.5636 81.4389 59.7054L81.2415 60.1637L72.1987 60.1708C63.8917 60.1755 63.156 60.1731 63.1701 60.1379C63.2476 59.9357 63.7295 58.255 63.9387 57.4652C65.0247 53.3305 65.6922 48.8503 65.8309 44.7367L65.8474 44.2619H75.3274H84.8073L84.7979 44.5252ZM23.8915 62.3804C26.4443 69.6085 30.6119 76.8883 35.6798 82.9763C35.9336 83.2795 36.2862 83.6956 36.4649 83.9001C36.6435 84.1046 36.7869 84.2786 36.7799 84.2833C36.7587 84.3068 35.5176 84.0788 34.6878 83.9025C29.1639 82.7248 23.9385 80.4212 19.3172 77.128C14.2634 73.5269 10.0817 68.8516 7.05886 63.4217C6.76503 62.8975 6.34662 62.1006 6.34662 62.0724C6.34662 62.063 10.2674 62.056 15.0627 62.056H23.7763L23.8915 62.3804ZM80.32 62.0724C80.32 62.1312 79.5138 63.6121 79.093 64.3243C78.3126 65.6453 77.3771 67.0463 76.4463 68.278C72.4455 73.5786 67.2037 77.8732 61.2332 80.7432C58.0363 82.2782 54.6421 83.3994 51.1702 84.0693C50.6319 84.1728 49.4755 84.3655 49.4637 84.3538C49.459 84.3491 49.6094 84.1681 49.7998 83.9495C52.5547 80.7879 55.2767 76.9353 57.4887 73.0685C59.4702 69.6037 61.1697 65.918 62.4343 62.3427L62.5377 62.056H71.4277C76.3193 62.056 80.32 62.063 80.32 62.0724Z" fill="black"/>
<path d="M42.5224 52.1951C40.797 52.3549 39.1892 53.0131 37.7977 54.1249C37.4521 54.4023 36.7987 55.0393 36.5354 55.3566C35.7926 56.2522 35.2426 57.2348 34.8947 58.2831C34.6385 59.0494 34.5256 59.6418 34.4669 60.5209C34.4293 61.0803 34.4293 61.1509 34.4669 61.708C34.5256 62.5871 34.6408 63.1935 34.8923 63.9434C35.4753 65.6899 36.5871 67.2154 38.0891 68.332C39.2174 69.1688 40.5103 69.7235 41.8642 69.9539C42.7621 70.1067 43.968 70.1114 44.873 69.9656C47.3975 69.5566 49.6259 68.0569 51.0386 65.8215C51.3559 65.3185 51.7438 64.4887 51.9412 63.8893C52.2116 63.0643 52.3714 62.03 52.3714 61.1156C52.3714 60.709 52.3103 59.9732 52.2421 59.576C51.993 58.1045 51.363 56.72 50.3828 55.4859C50.1219 55.1592 49.4073 54.4423 49.0688 54.1672C47.7337 53.086 46.2528 52.4489 44.5439 52.2186C44.1631 52.1669 42.9713 52.1528 42.5224 52.1951Z" fill="#302B28"/>
<path d="M80.7408 21.7761C80.7361 21.7808 80.0498 21.7996 79.2153 21.8137C78.3808 21.8301 74.2767 21.9147 70.095 22.0017L62.4908 22.1616L62.3262 22.225C61.9149 22.3802 61.5623 22.5941 61.1909 22.9091C61.0687 23.0101 60.9206 23.1324 60.8618 23.1794C60.756 23.2616 60.3494 23.7036 60.3071 23.7835C60.2953 23.807 60.1942 23.9457 60.0814 24.0938C59.8181 24.4416 59.4749 24.9611 59.2469 25.3631C59.1482 25.537 59.0518 25.6969 59.0354 25.7157C58.9954 25.7603 58.617 26.5219 58.4595 26.8698C58.3937 27.0179 58.0857 27.7348 57.7778 28.4659C56.6448 31.1573 55.6059 33.5056 54.8396 35.1181C54.7056 35.3954 54.5528 35.7245 54.4987 35.8468C54.3083 36.2793 54.0474 36.6554 53.6643 37.0526C53.2176 37.5157 52.7499 37.8542 52.1481 38.1527C50.8576 38.7897 49.3203 39.0577 47.4281 38.9754C46.8898 38.9519 44.9482 38.9496 38.4911 38.9613L30.2405 38.9778L30.0031 38.9284C29.4907 38.8226 28.8278 38.5735 28.3483 38.3031C27.7512 37.967 27.2529 37.5909 26.7287 37.0808C25.9413 36.3122 25.5746 35.8068 24.6343 34.199C23.7341 32.6593 23.1535 31.6838 23.0712 31.5687C23.0289 31.5099 22.8173 31.1714 22.6011 30.8188C22.3848 30.4639 22.0698 29.9562 21.9053 29.6929C21.7384 29.4296 21.6021 29.2063 21.6021 29.1946C21.6021 29.1852 21.4305 28.9172 21.2236 28.6022C20.1423 26.9732 19.3196 25.9554 18.9153 25.7509L18.7837 25.6851L17.3428 25.7603C16.5506 25.8026 13.9791 25.9413 11.6285 26.0706C9.2802 26.1975 7.34331 26.3033 7.32685 26.3033C7.28689 26.3033 7.3104 26.5055 7.39737 26.891C7.4914 27.3164 7.62773 27.7043 7.82283 28.0945L8.00383 28.4541L8.6855 28.4659C9.0616 28.4729 10.526 28.4682 11.9411 28.4588C14.6161 28.44 14.6513 28.4424 14.7853 28.5364C14.8629 28.5905 15.2202 29.1334 15.4176 29.4907C15.9559 30.4709 16.2098 31.5287 16.0922 32.2974C16.0476 32.5888 15.9771 32.7252 15.8313 32.8004C15.742 32.8474 15.702 32.8474 14.3152 32.8521C12.9213 32.8568 12.2161 32.8756 10.9421 32.9438C9.96423 32.9955 9.81614 33.0049 9.78323 33.0166C9.74562 33.0284 9.93837 33.4068 10.0959 33.6254C10.3192 33.9381 10.6436 34.2601 10.9585 34.4834L11.116 34.5939L12.2984 34.6103C12.9777 34.6197 13.9838 34.615 14.6607 34.6009C15.5446 34.5821 15.8666 34.5821 15.9418 34.6033C16.2521 34.6856 16.8915 35.3625 17.1571 35.8867C17.4133 36.3991 17.5355 36.921 17.5355 37.5227C17.5355 38.0187 17.4485 38.2209 17.2041 38.289C17.0936 38.3196 15.8595 38.369 14.2964 38.4066C13.7746 38.4183 13.342 38.4324 13.3373 38.4395C13.3209 38.4559 13.7393 38.9096 14.059 39.2199C14.9263 40.0637 15.9254 40.7689 17.1007 41.3707C17.8176 41.7374 18.2031 41.8925 19.2185 42.2286C20.4409 42.6353 21.7666 42.8939 23.3297 43.0325C23.7341 43.0678 24.2958 43.0702 29.3003 43.0655C34.4363 43.0608 37.0173 43.0749 41.7114 43.1336C47.3811 43.2065 54.5081 43.3311 60.0696 43.4533C62.3638 43.505 62.6929 43.4933 63.9011 43.3193C65.4337 43.0984 66.8417 42.7246 68.0852 42.2028C68.2921 42.1182 68.5248 42.0241 68.6023 41.9959C68.9784 41.8572 69.9845 41.2955 70.4899 40.9382C71.738 40.0614 72.6524 39.0389 73.3223 37.7766L73.4634 37.5086L73.1601 37.5251C69.5896 37.7061 66.4186 37.652 64.8414 37.3841C64.4841 37.3253 63.8165 37.1419 63.6332 37.0526C63.2359 36.8646 62.9562 36.4156 62.8057 35.7292C62.7282 35.386 62.7282 34.8219 62.8057 34.5422C63.0408 33.6701 63.4686 33.2681 64.3454 33.0848C64.5123 33.0519 65.0835 33.0472 70.5298 33.0495H76.5262L76.6931 32.845C77.2079 32.2033 77.5934 31.5475 77.8614 30.8635C77.9624 30.6026 78.0988 30.1607 78.0823 30.1489C78.08 30.1466 77.7532 30.156 77.3583 30.1724C75.2263 30.257 71.684 30.2735 69.9539 30.2077C68.9902 30.1701 68.2873 30.1324 68.0781 30.1113C67.6715 30.0666 66.8041 29.714 66.4938 29.4649C66.1271 29.1711 65.8639 28.5317 65.8639 27.937C65.8639 26.9732 66.4186 26.2187 67.293 25.9954C67.4646 25.9531 67.6292 25.9507 73.3317 25.9507H79.1918L79.4762 25.5699C79.6337 25.3607 79.7677 25.1727 79.7747 25.1539C79.7818 25.1327 79.8688 24.994 79.9675 24.8459C80.3506 24.27 80.6844 23.6848 80.9195 23.1794C80.99 23.0242 81.0488 22.8902 81.0488 22.8832C81.0488 22.8761 81.0817 22.8033 81.1216 22.7234C81.2204 22.5259 81.3238 22.2227 81.3661 21.9947C81.3849 21.8936 81.4014 21.7996 81.4014 21.7878C81.4014 21.7667 80.762 21.7573 80.7408 21.7761Z" fill="#302B28"/>
<path d="M64.4652 33.5079C64.2537 33.5478 64.0186 33.6325 63.8517 33.7335C63.7084 33.8205 63.4263 34.1073 63.4051 34.1872C63.3981 34.2131 63.431 34.5069 63.4756 34.836C63.5203 35.165 63.5861 35.6845 63.6214 35.9878C63.6543 36.291 63.6943 36.5543 63.7084 36.5707C63.8047 36.6929 64.5381 36.9021 65.1939 36.9985C65.6264 37.0596 65.6217 37.0596 65.6123 36.9797C65.6076 36.9445 65.5794 36.6577 65.5465 36.3403C65.476 35.6493 65.3467 34.6244 65.2527 33.9803C65.2127 33.7194 65.1822 33.5008 65.1822 33.4891C65.1822 33.4609 64.6439 33.475 64.4652 33.5079Z" fill="#DCDCDC"/>
</svg>
