<svg width="668" height="668" viewBox="0 0 668 668" fill="none" xmlns="http://www.w3.org/2000/svg">
<path d="M150.667 450.667V217.333H284" stroke="#302B28" stroke-width="66.6667" stroke-linecap="round" stroke-linejoin="round"/>
<path d="M150.667 334H275.667" stroke="#302B28" stroke-width="66.6667" stroke-linecap="round" stroke-linejoin="round"/>
<path d="M150.667 450.667H275.667" stroke="#302B28" stroke-width="66.6667" stroke-linecap="round" stroke-linejoin="round"/>
<path d="M367.333 450.667V250.667" stroke="#302B28" stroke-width="66.6667" stroke-linecap="round" stroke-linejoin="round"/>
<path d="M367.333 450.667V342.333C367.333 300.912 400.912 267.333 442.333 267.333C483.755 267.333 517.333 300.912 517.333 342.333V450.667" stroke="#302B28" stroke-width="66.6667" stroke-linecap="round" stroke-linejoin="round"/>
<path d="M584 34H84C56.3858 34 34 56.3858 34 84V584C34 611.614 56.3858 634 84 634H584C611.614 634 634 611.614 634 584V84C634 56.3858 611.614 34 584 34Z" stroke="#302B28" stroke-width="66.6667" stroke-linecap="round" stroke-linejoin="round"/>
</svg>
