<svg width="65" height="29" viewBox="0 0 65 29" fill="none" xmlns="http://www.w3.org/2000/svg">
<path d="M11.8064 1.816L11.2224 2.392L10.6384 1.816L11.2224 1.24L11.8064 1.816ZM13.0784 1.816L12.4944 2.392L11.9024 1.816L12.4944 1.24L13.0784 1.816ZM14.3984 6.28C14.4517 6.28 14.4784 6.304 14.4784 6.352V6.92C14.4784 6.97333 14.4517 7 14.3984 7C13.9077 7 13.545 6.88533 13.3104 6.656C12.7717 6.93333 12.289 7.072 11.8624 7.072C11.3237 7.072 10.881 6.888 10.5344 6.52C10.193 6.152 10.0224 5.696 10.0224 5.152C10.0224 4.59733 10.1957 4.12533 10.5424 3.736C10.889 3.34667 11.329 3.152 11.8624 3.152C12.1877 3.152 12.545 3.22667 12.9344 3.376V2.88L13.6064 2.768L13.6144 5.384C13.6144 5.704 13.6757 5.93333 13.7984 6.072C13.921 6.21067 14.121 6.28 14.3984 6.28ZM11.8624 6.384C12.2197 6.38933 12.6037 6.29867 13.0144 6.112C12.961 5.93067 12.9344 5.70933 12.9344 5.448V4.056C12.5024 3.912 12.153 3.84 11.8864 3.84C11.529 3.84 11.2357 3.96533 11.0064 4.216C10.7824 4.46667 10.6704 4.776 10.6704 5.144C10.6704 5.496 10.7797 5.78933 10.9984 6.024C11.2224 6.25867 11.5104 6.37867 11.8624 6.384ZM16.5824 3.12C17.0944 3.12 17.5238 3.296 17.8704 3.648C18.2171 3.99467 18.3904 4.42933 18.3904 4.952C18.3904 5.592 18.1904 6.09333 17.7904 6.456C17.3958 6.81867 16.8491 7 16.1504 7H14.3984C14.3451 7 14.3184 6.97333 14.3184 6.92V6.352C14.3184 6.304 14.3451 6.28 14.3984 6.28H15.0864C14.8464 5.784 14.7264 5.352 14.7264 4.984C14.7264 4.44533 14.8998 4 15.2464 3.648C15.5984 3.296 16.0438 3.12 16.5824 3.12ZM16.2064 6.28C16.6651 6.28 17.0304 6.16533 17.3024 5.936C17.5744 5.70667 17.7104 5.38667 17.7104 4.976C17.7104 4.63467 17.5984 4.35467 17.3744 4.136C17.1558 3.912 16.8784 3.8 16.5424 3.8C16.2224 3.8 15.9504 3.92 15.7264 4.16C15.5024 4.39467 15.3904 4.672 15.3904 4.992C15.3904 5.376 15.5238 5.80533 15.7904 6.28H16.2064ZM21.1104 7C19.9904 7 19.4304 6.46667 19.4304 5.4L19.4224 1.264L20.1024 1.16V5.24C20.1024 5.93333 20.4357 6.28 21.1024 6.28C21.1557 6.28 21.1824 6.304 21.1824 6.352L21.1904 6.92C21.1904 6.97333 21.1637 7 21.1104 7ZM25.9014 6.28C25.9547 6.28 25.9814 6.304 25.9814 6.352V6.92C25.9814 6.97333 25.9547 7 25.9014 7C24.968 7 24.216 6.85867 23.6454 6.576C23.288 6.736 22.92 6.848 22.5414 6.912C22.1627 6.97067 21.6854 7 21.1094 7C21.056 6.99467 21.0294 6.968 21.0294 6.92V6.352C21.0294 6.304 21.056 6.28 21.1094 6.28C21.6587 6.28 22.2 6.232 22.7334 6.136C22.4507 5.8 22.2107 5.48533 22.0134 5.192C21.816 4.89333 21.5974 4.51733 21.3574 4.064L21.6134 3.448C22.36 3.064 23.0347 2.872 23.6374 2.872C24.1707 2.872 24.6134 3.01333 24.9654 3.296C25.3174 3.57867 25.4934 3.93867 25.4934 4.376C25.4934 4.68 25.4 4.98933 25.2134 5.304C25.0267 5.61333 24.752 5.896 24.3894 6.152C24.816 6.23733 25.32 6.28 25.9014 6.28ZM23.5254 3.56C23.1094 3.55467 22.6267 3.68 22.0774 3.936C22.312 4.38933 22.5307 4.768 22.7334 5.072C22.9414 5.37067 23.1947 5.688 23.4934 6.024C23.8774 5.83733 24.1894 5.61067 24.4294 5.344C24.6747 5.07733 24.7974 4.82933 24.7974 4.6C24.7974 4.29067 24.68 4.04 24.4454 3.848C24.216 3.656 23.9094 3.56 23.5254 3.56ZM25.9141 7C25.8607 7 25.8341 6.97333 25.8341 6.92V6.352C25.8341 6.304 25.8634 6.28 25.9221 6.28C26.5887 6.28 26.9221 5.93333 26.9221 5.24L26.9301 1.264L27.6021 1.16V5.4C27.6021 6.46667 27.0394 7 25.9141 7ZM28.9851 7V1.264L29.6651 1.16V7H28.9851ZM34.3142 1.816L33.7302 2.392L33.1462 1.816L33.7302 1.24L34.3142 1.816ZM35.5862 1.816L35.0022 2.392L34.4102 1.816L35.0022 1.24L35.5862 1.816ZM36.9062 6.28C36.9595 6.28 36.9862 6.304 36.9862 6.352V6.92C36.9862 6.97333 36.9595 7 36.9062 7C36.4155 7 36.0529 6.88533 35.8182 6.656C35.2795 6.93333 34.7969 7.072 34.3702 7.072C33.8315 7.072 33.3889 6.888 33.0422 6.52C32.7009 6.152 32.5302 5.696 32.5302 5.152C32.5302 4.59733 32.7035 4.12533 33.0502 3.736C33.3969 3.34667 33.8369 3.152 34.3702 3.152C34.6955 3.152 35.0529 3.22667 35.4422 3.376V2.88L36.1142 2.768L36.1222 5.384C36.1222 5.704 36.1835 5.93333 36.3062 6.072C36.4289 6.21067 36.6289 6.28 36.9062 6.28ZM34.3702 6.384C34.7275 6.38933 35.1115 6.29867 35.5222 6.112C35.4689 5.93067 35.4422 5.70933 35.4422 5.448V4.056C35.0102 3.912 34.6609 3.84 34.3942 3.84C34.0369 3.84 33.7435 3.96533 33.5142 4.216C33.2902 4.46667 33.1782 4.776 33.1782 5.144C33.1782 5.496 33.2875 5.78933 33.5062 6.024C33.7302 6.25867 34.0182 6.37867 34.3702 6.384ZM39.3223 3.616C39.9089 3.616 40.3756 3.768 40.7223 4.072C41.0743 4.37067 41.2503 4.776 41.2503 5.288C41.2503 5.816 41.0849 6.23467 40.7543 6.544C40.4289 6.848 39.9916 7 39.4423 7H36.9062C36.8529 7 36.8262 6.97333 36.8262 6.92V6.352C36.8262 6.304 36.8529 6.28 36.9062 6.28H39.3863C39.7543 6.28 40.0423 6.192 40.2503 6.016C40.4636 5.84 40.5703 5.59467 40.5703 5.28C40.5703 4.96533 40.4636 4.71733 40.2503 4.536C40.0423 4.34933 39.7569 4.256 39.3943 4.256H37.4663L37.0983 3.608L39.4903 0.776L40.1463 1.12L37.8983 3.616H39.3223ZM44.3385 6.28C44.3918 6.28 44.4185 6.304 44.4185 6.352V6.92C44.4185 6.97333 44.3918 7 44.3385 7C43.9278 7 43.6265 6.85867 43.4345 6.576V6.784C43.4345 7.45067 43.2638 7.93867 42.9225 8.248C42.5812 8.56267 42.0692 8.72 41.3865 8.72L41.3225 8.136C42.2825 8.136 42.7625 7.67733 42.7625 6.76L42.7545 3.136L43.4345 3.024V5.52C43.4718 6.02667 43.7732 6.28 44.3385 6.28ZM48.4718 1.16L48.0558 1.576L47.6318 1.16L48.0478 0.736L48.4718 1.16ZM47.9678 2.136L47.3918 2.72L46.7998 2.136L47.3838 1.56L47.9678 2.136ZM48.7118 2.72L48.1198 2.136L48.7118 1.56L49.2958 2.136L48.7118 2.72ZM51.8558 6.28C51.9091 6.28 51.9358 6.304 51.9358 6.352V6.92C51.9358 6.97333 51.9091 7 51.8558 7C51.4131 7 50.9998 6.83733 50.6158 6.512C50.3438 6.832 49.9251 6.992 49.3598 6.992C48.9331 6.992 48.4878 6.85067 48.0238 6.568C47.7411 6.85067 47.3358 6.992 46.8078 6.992C46.4238 6.992 46.0264 6.85333 45.6158 6.576C45.3224 6.85867 44.8984 7 44.3438 7C44.2904 7 44.2637 6.97333 44.2637 6.92V6.352C44.2637 6.304 44.2904 6.28 44.3438 6.28C45.0158 6.28 45.3518 5.94667 45.3518 5.28L45.3438 3.984L46.0238 3.88V5.464C46.0238 5.688 45.9918 5.89333 45.9278 6.08C46.2371 6.208 46.5144 6.272 46.7598 6.272C47.4318 6.272 47.7678 5.93867 47.7678 5.272L47.7598 3.976L48.4398 3.872V5.456C48.4398 5.69067 48.4051 5.896 48.3358 6.072C48.6664 6.20533 48.9758 6.272 49.2638 6.272C49.5891 6.272 49.8371 6.18933 50.0078 6.024C50.1838 5.85333 50.2718 5.60267 50.2718 5.272V3.128L50.9438 3.016V5.456C50.9438 5.632 50.9224 5.80533 50.8798 5.976C51.1891 6.17867 51.5144 6.28 51.8558 6.28ZM51.8594 7C51.806 7 51.7794 6.97333 51.7794 6.92V6.352C51.7794 6.304 51.8087 6.28 51.8674 6.28C52.534 6.28 52.8674 5.93333 52.8674 5.24L52.8754 1.264L53.5474 1.16V5.4C53.5474 6.46667 52.9847 7 51.8594 7ZM54.9304 7V1.264L55.6104 1.16V7H54.9304ZM3.74669 12.752L3.16269 13.328L2.57869 12.752L3.16269 12.176L3.74669 12.752ZM5.01869 12.752L4.43469 13.328L3.84269 12.752L4.43469 12.176L5.01869 12.752ZM5.99469 13.136L6.67469 13.024V15.464C6.67469 15.9547 6.53069 16.3333 6.24269 16.6C5.96002 16.8667 5.54135 17 4.98669 17H2.85069C2.21602 17 1.73069 16.8533 1.39469 16.56C1.06402 16.2667 0.898688 15.8347 0.898688 15.264C0.898688 14.8747 0.954688 14.4187 1.06669 13.896L1.66669 13.976C1.58135 14.4507 1.53869 14.816 1.53869 15.072C1.53869 15.8773 2.02935 16.28 3.01069 16.28H4.98669C5.65869 16.28 5.99469 15.9467 5.99469 15.28V13.136ZM9.57913 17C8.45913 17 7.89913 16.4667 7.89913 15.4L7.89113 11.264L8.57113 11.16V15.24C8.57113 15.9333 8.90446 16.28 9.57113 16.28C9.62446 16.28 9.65113 16.304 9.65113 16.352L9.65913 16.92C9.65913 16.9733 9.63246 17 9.57913 17ZM11.7621 13.12C12.2741 13.12 12.7035 13.296 13.0501 13.648C13.3968 13.9947 13.5701 14.4293 13.5701 14.952C13.5701 15.592 13.3701 16.0933 12.9701 16.456C12.5755 16.8187 12.0288 17 11.3301 17H9.57812C9.52479 17 9.49812 16.9733 9.49812 16.92V16.352C9.49812 16.304 9.52479 16.28 9.57812 16.28H10.2661C10.0261 15.784 9.90613 15.352 9.90613 14.984C9.90613 14.4453 10.0795 14 10.4261 13.648C10.7781 13.296 11.2235 13.12 11.7621 13.12ZM11.3861 16.28C11.8448 16.28 12.2101 16.1653 12.4821 15.936C12.7541 15.7067 12.8901 15.3867 12.8901 14.976C12.8901 14.6347 12.7781 14.3547 12.5541 14.136C12.3355 13.912 12.0581 13.8 11.7221 13.8C11.4021 13.8 11.1301 13.92 10.9061 14.16C10.6821 14.3947 10.5701 14.672 10.5701 14.992C10.5701 15.376 10.7035 15.8053 10.9701 16.28H11.3861ZM18.6741 16.28C18.7274 16.28 18.7541 16.304 18.7541 16.352V16.92C18.7541 16.9733 18.7274 17 18.6741 17C18.2047 17 17.7781 16.8213 17.3941 16.464C17.1007 16.8213 16.6367 17 16.0021 17H14.1301L13.9941 16.28H16.0101C16.3354 16.28 16.5834 16.2 16.7541 16.04C16.9301 15.88 17.0181 15.6533 17.0181 15.36L17.0101 14.896C17.0047 14.5707 16.8874 14.3067 16.6581 14.104C16.4341 13.9013 16.1461 13.8 15.7941 13.8H15.3221V13.096H15.9381C16.4501 13.096 16.8687 13.2533 17.1941 13.568C17.5194 13.8827 17.6847 14.296 17.6901 14.808L17.6981 15.464C17.6981 15.608 17.6794 15.7627 17.6421 15.928C17.9727 16.1627 18.3167 16.28 18.6741 16.28ZM21.5599 12.016L20.9759 12.6L20.3839 12.016L20.9599 11.44L21.5599 12.016ZM23.7519 16.28C23.8052 16.28 23.8319 16.304 23.8319 16.352V16.92C23.8319 16.9733 23.8052 17 23.7519 17H23.3839C23.0479 17 22.7759 16.9253 22.5679 16.776C22.3599 16.6267 22.2212 16.4187 22.1519 16.152C20.9252 16.7173 19.7679 17 18.6799 17C18.6212 17 18.5919 16.9733 18.5919 16.92V16.352C18.5919 16.304 18.6212 16.28 18.6799 16.28C19.9119 16.28 21.1625 15.9707 22.4319 15.352C21.7439 14.776 21.2345 14.3947 20.9039 14.208C20.5785 14.0213 20.2692 13.928 19.9759 13.928C19.8532 13.928 19.5919 13.9707 19.1919 14.056L19.0559 13.448C19.4505 13.2987 19.7919 13.224 20.0799 13.224C20.4265 13.224 20.7919 13.3387 21.1759 13.568C21.5652 13.7973 22.2159 14.2907 23.1279 15.048L23.0239 15.712C22.8745 15.8027 22.7225 15.8827 22.5679 15.952C22.7012 16.1707 22.9759 16.28 23.3919 16.28H23.7519ZM23.75 17C23.6967 17 23.67 16.9733 23.67 16.92V16.352C23.67 16.304 23.6993 16.28 23.758 16.28C24.4247 16.28 24.758 15.9333 24.758 15.24L24.766 11.264L25.438 11.16V15.4C25.438 16.4667 24.8753 17 23.75 17ZM26.821 17V11.264L27.501 11.16V17H26.821ZM32.2701 13.152C32.7661 13.152 33.1688 13.3173 33.4781 13.648C33.7875 13.9733 33.9421 14.4053 33.9421 14.944V16.816C33.9421 18.0853 32.9475 18.72 30.9581 18.72L30.8781 18.136C31.6835 18.136 32.2835 18.0267 32.6781 17.808C33.0728 17.5947 33.2701 17.2533 33.2701 16.784V16.768C32.9288 16.9227 32.5981 17 32.2781 17C31.7235 17 31.2755 16.8293 30.9341 16.488C30.5928 16.1413 30.4221 15.6773 30.4221 15.096C30.4221 14.5253 30.5955 14.0587 30.9421 13.696C31.2941 13.3333 31.7368 13.152 32.2701 13.152ZM32.3661 16.304C32.6808 16.304 32.9821 16.2533 33.2701 16.152V15C33.2701 14.6587 33.1715 14.3813 32.9741 14.168C32.7768 13.9547 32.5208 13.848 32.2061 13.848C31.8755 13.848 31.6008 13.96 31.3821 14.184C31.1635 14.408 31.0541 14.7013 31.0541 15.064C31.0541 15.4747 31.1715 15.7867 31.4061 16C31.6408 16.2133 31.9608 16.3147 32.3661 16.304ZM43.3672 11.744L42.7832 12.328L42.1912 11.744L42.7672 11.168L43.3672 11.744ZM44.2872 13.056C44.7939 13.056 45.2099 13.216 45.5352 13.536C45.8659 13.856 46.0312 14.264 46.0312 14.76C46.0312 15.0053 46.0099 15.2293 45.9672 15.432C45.9299 15.6293 45.8552 15.9467 45.7432 16.384L45.2072 17H41.1112C41.0045 17.544 40.7672 17.9653 40.3992 18.264C40.0365 18.568 39.5352 18.72 38.8952 18.72C38.2232 18.72 37.6899 18.544 37.2952 18.192C36.9059 17.8453 36.7112 17.3307 36.7112 16.648C36.7112 16.0773 36.8285 15.4347 37.0632 14.72L37.6152 14.872C37.4285 15.4213 37.3352 15.9547 37.3352 16.472C37.3405 16.9733 37.4819 17.352 37.7592 17.608C38.0365 17.8693 38.4285 18 38.9352 18C39.4685 18 39.8632 17.848 40.1192 17.544C40.3805 17.2453 40.5112 16.7813 40.5112 16.152V13.136L41.1832 13.024V13.976C42.0045 13.624 42.6259 13.384 43.0472 13.256C43.4739 13.1227 43.8872 13.056 44.2872 13.056ZM45.0872 16.28C45.2632 15.6773 45.3512 15.2027 45.3512 14.856C45.3459 14.536 45.2285 14.2747 44.9992 14.072C44.7752 13.864 44.4899 13.76 44.1432 13.76C43.8232 13.76 43.5139 13.8027 43.2152 13.888C42.9165 13.968 42.3805 14.1467 41.6072 14.424C41.5485 14.4453 41.5005 14.464 41.4632 14.48C41.4312 14.4907 41.3885 14.5067 41.3352 14.528C41.2819 14.544 41.2312 14.56 41.1832 14.576V16.224V16.28H45.0872ZM46.2068 18.72L46.1428 18.136C47.1028 18.136 47.5828 17.6773 47.5828 16.76L47.5748 13.136L48.2548 13.024V16.784C48.2548 17.4507 48.0841 17.9387 47.7428 18.248C47.4015 18.5627 46.8895 18.72 46.2068 18.72ZM51.1494 17C50.0294 17 49.4694 16.4667 49.4694 15.4L49.4614 11.264L50.1414 11.16V15.24C50.1414 15.9333 50.4748 16.28 51.1414 16.28C51.1948 16.28 51.2214 16.304 51.2214 16.352L51.2294 16.92C51.2294 16.9733 51.2028 17 51.1494 17ZM55.9404 16.28C55.9938 16.28 56.0204 16.304 56.0204 16.352V16.92C56.0204 16.9733 55.9938 17 55.9404 17C55.0071 17 54.2551 16.8587 53.6844 16.576C53.3271 16.736 52.9591 16.848 52.5804 16.912C52.2018 16.9707 51.7244 17 51.1484 17C51.0951 16.9947 51.0684 16.968 51.0684 16.92V16.352C51.0684 16.304 51.0951 16.28 51.1484 16.28C51.6978 16.28 52.2391 16.232 52.7724 16.136C52.4898 15.8 52.2498 15.4853 52.0524 15.192C51.8551 14.8933 51.6364 14.5173 51.3964 14.064L51.6524 13.448C52.3991 13.064 53.0738 12.872 53.6764 12.872C54.2098 12.872 54.6524 13.0133 55.0044 13.296C55.3564 13.5787 55.5324 13.9387 55.5324 14.376C55.5324 14.68 55.4391 14.9893 55.2524 15.304C55.0658 15.6133 54.7911 15.896 54.4284 16.152C54.8551 16.2373 55.3591 16.28 55.9404 16.28ZM53.5644 13.56C53.1484 13.5547 52.6658 13.68 52.1164 13.936C52.3511 14.3893 52.5698 14.768 52.7724 15.072C52.9804 15.3707 53.2338 15.688 53.5324 16.024C53.9164 15.8373 54.2284 15.6107 54.4684 15.344C54.7138 15.0773 54.8364 14.8293 54.8364 14.6C54.8364 14.2907 54.7191 14.04 54.4844 13.848C54.2551 13.656 53.9484 13.56 53.5644 13.56ZM60.4651 16.28C60.5185 16.28 60.5451 16.304 60.5451 16.352V16.92C60.5451 16.9733 60.5185 17 60.4651 17H58.5291C58.0011 17 57.5585 16.8693 57.2011 16.608C56.7851 16.8693 56.3691 17 55.9531 17C55.8998 17 55.8731 16.9733 55.8731 16.92V16.352C55.8731 16.304 55.8998 16.28 55.9531 16.28C56.2305 16.28 56.4945 16.2213 56.7451 16.104C56.5531 15.7893 56.4571 15.4133 56.4571 14.976C56.4571 14.4427 56.6278 14 56.9691 13.648C57.3105 13.296 57.7451 13.12 58.2731 13.12C58.7691 13.12 59.1931 13.2987 59.5451 13.656C59.8971 14.008 60.0731 14.424 60.0731 14.904C60.0731 15.32 59.9798 15.7787 59.7931 16.28H60.4651ZM58.4731 16.28H59.1371C59.3238 15.7573 59.4171 15.336 59.4171 15.016C59.4171 14.6907 59.3105 14.4053 59.0971 14.16C58.8891 13.9147 58.6278 13.792 58.3131 13.792C57.9558 13.792 57.6705 13.904 57.4571 14.128C57.2438 14.3467 57.1371 14.6373 57.1371 15C57.1371 15.384 57.2571 15.6933 57.4971 15.928C57.7371 16.1627 58.0625 16.28 58.4731 16.28ZM63.0608 16.28C63.1141 16.28 63.1408 16.304 63.1408 16.352V16.92C63.1408 16.9733 63.1141 17 63.0608 17C62.4154 17 61.9568 16.8267 61.6848 16.48C61.3168 16.8267 60.9114 17 60.4688 17C60.4154 17 60.3887 16.9733 60.3887 16.92V16.352C60.3887 16.304 60.4154 16.28 60.4688 16.28C60.8528 16.28 61.1754 16.168 61.4368 15.944C61.3994 15.7947 61.3808 15.6133 61.3808 15.4V11.264L62.0608 11.16V15.24C62.0608 15.9333 62.3941 16.28 63.0608 16.28ZM63.0703 17C63.017 17 62.9903 16.9733 62.9903 16.92V16.352C62.9903 16.304 63.0196 16.28 63.0783 16.28C63.745 16.28 64.0783 15.9333 64.0783 15.24L64.0863 11.264L64.7583 11.16V15.4C64.7583 16.4667 64.1956 17 63.0703 17ZM8.72434 21.816L8.14034 22.392L7.55634 21.816L8.14034 21.24L8.72434 21.816ZM9.99634 21.816L9.41234 22.392L8.82034 21.816L9.41234 21.24L9.99634 21.816ZM11.3163 26.28C11.3697 26.28 11.3963 26.304 11.3963 26.352V26.92C11.3963 26.9733 11.3697 27 11.3163 27C10.8257 27 10.463 26.8853 10.2283 26.656C9.68968 26.9333 9.20701 27.072 8.78034 27.072C8.24168 27.072 7.79901 26.888 7.45234 26.52C7.11101 26.152 6.94034 25.696 6.94034 25.152C6.94034 24.5973 7.11368 24.1253 7.46034 23.736C7.80701 23.3467 8.24701 23.152 8.78034 23.152C9.10568 23.152 9.46301 23.2267 9.85234 23.376V22.88L10.5243 22.768L10.5323 25.384C10.5323 25.704 10.5937 25.9333 10.7163 26.072C10.839 26.2107 11.039 26.28 11.3163 26.28ZM8.78034 26.384C9.13768 26.3893 9.52168 26.2987 9.93234 26.112C9.87901 25.9307 9.85234 25.7093 9.85234 25.448V24.056C9.42034 23.912 9.07101 23.84 8.80434 23.84C8.44701 23.84 8.15368 23.9653 7.92434 24.216C7.70034 24.4667 7.58834 24.776 7.58834 25.144C7.58834 25.496 7.69768 25.7893 7.91634 26.024C8.14034 26.2587 8.42834 26.3787 8.78034 26.384ZM14.3244 26.28C14.3777 26.28 14.4044 26.304 14.4044 26.352V26.92C14.4044 26.9733 14.3777 27 14.3244 27C13.8284 27 13.3697 26.8053 12.9484 26.416C12.6604 26.8053 12.1164 27 11.3164 27C11.2631 27 11.2364 26.9733 11.2364 26.92L11.2444 26.352C11.2444 26.304 11.2711 26.28 11.3244 26.28C11.7511 26.28 12.0604 26.2027 12.2524 26.048C12.4497 25.888 12.5484 25.632 12.5484 25.28V23.984L13.2204 23.88V25.464C13.2204 25.5973 13.2071 25.736 13.1804 25.88C13.5377 26.1467 13.9191 26.28 14.3244 26.28ZM11.5804 28.208L12.1644 27.632L12.7484 28.208L12.1644 28.784L11.5804 28.208ZM12.8444 28.208L13.4364 27.632L14.0204 28.208L13.4364 28.784L12.8444 28.208ZM16.3962 21.872L15.8122 22.448L15.2282 21.872L15.8122 21.296L16.3962 21.872ZM17.6682 21.872L17.0842 22.448L16.4922 21.872L17.0842 21.296L17.6682 21.872ZM16.5082 23.12C17.0202 23.12 17.4496 23.296 17.7962 23.648C18.1429 23.9947 18.3162 24.4293 18.3162 24.952C18.3162 25.592 18.1162 26.0933 17.7162 26.456C17.3216 26.8187 16.7749 27 16.0762 27H14.3242C14.2709 27 14.2442 26.9733 14.2442 26.92V26.352C14.2442 26.304 14.2709 26.28 14.3242 26.28H15.0122C14.7722 25.784 14.6522 25.352 14.6522 24.984C14.6522 24.4453 14.8256 24 15.1722 23.648C15.5242 23.296 15.9696 23.12 16.5082 23.12ZM16.1322 26.28C16.5909 26.28 16.9562 26.1653 17.2282 25.936C17.5002 25.7067 17.6362 25.3867 17.6362 24.976C17.6362 24.6347 17.5242 24.3547 17.3002 24.136C17.0816 23.912 16.8042 23.8 16.4682 23.8C16.1482 23.8 15.8762 23.92 15.6522 24.16C15.4282 24.3947 15.3162 24.672 15.3162 24.992C15.3162 25.376 15.4496 25.8053 15.7162 26.28H16.1322ZM19.3562 27V21.264L20.0362 21.16V27H19.3562ZM23.4674 26.28C23.5207 26.28 23.5474 26.304 23.5474 26.352V26.92C23.5474 26.9733 23.5207 27 23.4674 27C23.0567 27 22.7554 26.8587 22.5634 26.576V26.784C22.5634 27.4507 22.3927 27.9387 22.0514 28.248C21.7101 28.5627 21.1981 28.72 20.5154 28.72L20.4514 28.136C21.4114 28.136 21.8914 27.6773 21.8914 26.76L21.8834 23.136L22.5634 23.024V25.52C22.6007 26.0267 22.9021 26.28 23.4674 26.28ZM28.2647 26.28C28.318 26.28 28.3447 26.304 28.3447 26.352V26.92C28.3447 26.9733 28.318 27 28.2647 27C27.3313 27 26.5793 26.8587 26.0087 26.576C25.6513 26.736 25.2833 26.848 24.9047 26.912C24.526 26.9707 24.0487 27 23.4727 27C23.4193 26.9947 23.3927 26.968 23.3927 26.92V26.352C23.3927 26.304 23.4193 26.28 23.4727 26.28C24.022 26.28 24.5633 26.232 25.0967 26.136C24.814 25.8 24.574 25.4853 24.3767 25.192C24.1793 24.8933 23.9607 24.5173 23.7207 24.064L23.9767 23.448C24.7233 23.064 25.398 22.872 26.0007 22.872C26.534 22.872 26.9767 23.0133 27.3287 23.296C27.6807 23.5787 27.8567 23.9387 27.8567 24.376C27.8567 24.68 27.7633 24.9893 27.5767 25.304C27.39 25.6133 27.1153 25.896 26.7527 26.152C27.1793 26.2373 27.6833 26.28 28.2647 26.28ZM25.8887 23.56C25.4727 23.5547 24.99 23.68 24.4407 23.936C24.6753 24.3893 24.894 24.768 25.0967 25.072C25.3047 25.3707 25.558 25.688 25.8567 26.024C26.2407 25.8373 26.5527 25.6107 26.7927 25.344C27.038 25.0773 27.1607 24.8293 27.1607 24.6C27.1607 24.2907 27.0433 24.04 26.8087 23.848C26.5793 23.656 26.2727 23.56 25.8887 23.56ZM28.2773 27C28.224 27 28.1973 26.9733 28.1973 26.92V26.352C28.1973 26.304 28.2267 26.28 28.2853 26.28C28.952 26.28 29.2853 25.9333 29.2853 25.24L29.2933 21.264L29.9653 21.16V25.4C29.9653 26.4667 29.4027 27 28.2773 27ZM31.3483 27V21.264L32.0283 21.16V27H31.3483ZM36.6775 21.816L36.0935 22.392L35.5095 21.816L36.0935 21.24L36.6775 21.816ZM37.9495 21.816L37.3655 22.392L36.7735 21.816L37.3655 21.24L37.9495 21.816ZM39.2695 26.28C39.3228 26.28 39.3495 26.304 39.3495 26.352V26.92C39.3495 26.9733 39.3228 27 39.2695 27C38.7788 27 38.4161 26.8853 38.1815 26.656C37.6428 26.9333 37.1601 27.072 36.7335 27.072C36.1948 27.072 35.7521 26.888 35.4055 26.52C35.0641 26.152 34.8935 25.696 34.8935 25.152C34.8935 24.5973 35.0668 24.1253 35.4135 23.736C35.7601 23.3467 36.2001 23.152 36.7335 23.152C37.0588 23.152 37.4161 23.2267 37.8055 23.376V22.88L38.4775 22.768L38.4855 25.384C38.4855 25.704 38.5468 25.9333 38.6695 26.072C38.7921 26.2107 38.9921 26.28 39.2695 26.28ZM36.7335 26.384C37.0908 26.3893 37.4748 26.2987 37.8855 26.112C37.8321 25.9307 37.8055 25.7093 37.8055 25.448V24.056C37.3735 23.912 37.0241 23.84 36.7575 23.84C36.4001 23.84 36.1068 23.9653 35.8775 24.216C35.6535 24.4667 35.5415 24.776 35.5415 25.144C35.5415 25.496 35.6508 25.7893 35.8695 26.024C36.0935 26.2587 36.3815 26.3787 36.7335 26.384ZM39.2695 27C39.2162 27 39.1895 26.9733 39.1895 26.92L39.1975 26.352C39.1975 26.304 39.2242 26.28 39.2775 26.28H39.8855C40.5522 26.28 40.8855 25.9467 40.8855 25.28V23.136L41.5575 23.024V25.464C41.5575 25.9547 41.4162 26.3333 41.1335 26.6C40.8509 26.8667 40.4322 27 39.8775 27H39.2695ZM39.7815 28.784L39.1975 28.208L39.7815 27.632L40.3655 28.208L39.7815 28.784ZM41.0535 28.784L40.4615 28.208L41.0535 27.632L41.6375 28.208L41.0535 28.784ZM41.9138 28.72L41.8498 28.136C42.8098 28.136 43.2898 27.6773 43.2898 26.76L43.2818 23.136L43.9618 23.024V26.784C43.9618 27.4507 43.7912 27.9387 43.4498 28.248C43.1085 28.5627 42.5965 28.72 41.9138 28.72ZM46.8565 27C45.7365 27 45.1765 26.4667 45.1765 25.4L45.1685 21.264L45.8485 21.16V25.24C45.8485 25.9333 46.1818 26.28 46.8485 26.28C46.9018 26.28 46.9285 26.304 46.9285 26.352L46.9365 26.92C46.9365 26.9733 46.9098 27 46.8565 27ZM51.9355 26.28C51.9888 26.28 52.0155 26.304 52.0155 26.352V26.92C52.0155 26.9733 51.9888 27 51.9355 27H51.5675C51.2315 27 50.9595 26.9253 50.7515 26.776C50.5435 26.6267 50.4048 26.4187 50.3355 26.152C49.1088 26.7173 47.9515 27 46.8635 27C46.8048 27 46.7755 26.9733 46.7755 26.92V26.352C46.7755 26.304 46.8048 26.28 46.8635 26.28C48.0955 26.28 49.3461 25.9707 50.6155 25.352C49.9275 24.776 49.4181 24.3947 49.0875 24.208C48.7621 24.0213 48.4528 23.928 48.1595 23.928C48.0368 23.928 47.7755 23.9707 47.3755 24.056L47.2395 23.448C47.6341 23.2987 47.9755 23.224 48.2635 23.224C48.6101 23.224 48.9755 23.3387 49.3595 23.568C49.7488 23.7973 50.3995 24.2907 51.3115 25.048L51.2075 25.712C51.0581 25.8027 50.9061 25.8827 50.7515 25.952C50.8848 26.1707 51.1595 26.28 51.5755 26.28H51.9355ZM48.7035 28.168L49.2795 27.584L49.8795 28.168L49.2955 28.744L48.7035 28.168ZM53.4056 22.728L52.8216 23.304L52.2376 22.728L52.8216 22.152L53.4056 22.728ZM54.6776 22.728L54.0936 23.304L53.5016 22.728L54.0936 22.152L54.6776 22.728ZM54.9416 26.28C54.9949 26.28 55.0216 26.304 55.0216 26.352V26.92C55.0216 26.9733 54.9949 27 54.9416 27C54.4456 27 53.9869 26.8053 53.5656 26.416C53.2776 26.8053 52.7336 27 51.9336 27C51.8803 27 51.8536 26.9733 51.8536 26.92L51.8616 26.352C51.8616 26.304 51.8883 26.28 51.9416 26.28C52.3683 26.28 52.6776 26.2027 52.8696 26.048C53.0669 25.888 53.1656 25.632 53.1656 25.28V23.984L53.8376 23.88V25.464C53.8376 25.5973 53.8243 25.736 53.7976 25.88C54.1549 26.1467 54.5363 26.28 54.9416 26.28ZM54.9414 27C54.8881 27 54.8614 26.9733 54.8614 26.92V26.352C54.8614 26.304 54.8907 26.28 54.9494 26.28C55.6161 26.28 55.9494 25.9333 55.9494 25.24L55.9574 21.264L56.6294 21.16V25.4C56.6294 26.4667 56.0667 27 54.9414 27ZM58.0124 27V21.264L58.6924 21.16V27H58.0124Z" fill="#312B28"/>
</svg>
